<?xml version="1.0" encoding="UTF-8"?>
<svg width="102px" height="13px" viewBox="0 0 102 13" version="1.1" xmlns="http://www.w3.org/2000/svg" xmlns:xlink="http://www.w3.org/1999/xlink">
    <title>FORMOVE™</title>
    <g id="desktop_version_edit_02" stroke="none" stroke-width="1" fill="none" fill-rule="evenodd">
        <g id="Desktop-HD" transform="translate(-131.000000, -85.000000)" fill-rule="nonzero">
            <g id="FORMOVE™" transform="translate(131.328000, 85.608000)">
                <path d="M2.592,11.392 L2.592,7.312 L7.776,7.312 L7.776,5.232 L2.592,5.232 L2.592,2.272 L8.464,2.272 L8.464,0.192 L2.84217094e-14,0.192 L2.84217094e-14,11.392 L2.592,11.392 Z M15.536,11.584 C16.6986667,11.584 17.744,11.3333333 18.672,10.832 C19.6,10.3306667 20.3306667,9.64 20.864,8.76 C21.3973333,7.88 21.664,6.89066667 21.664,5.792 C21.664,4.69333333 21.3973333,3.704 20.864,2.824 C20.3306667,1.944 19.6,1.25333333 18.672,0.752 C17.744,0.250666667 16.6986667,-2.84217094e-14 15.536,-2.84217094e-14 C14.3733333,-2.84217094e-14 13.3253333,0.250666667 12.392,0.752 C11.4586667,1.25333333 10.728,1.944 10.2,2.824 C9.672,3.704 9.408,4.69333333 9.408,5.792 C9.408,6.89066667 9.672,7.88 10.2,8.76 C10.728,9.64 11.4586667,10.3306667 12.392,10.832 C13.3253333,11.3333333 14.3733333,11.584 15.536,11.584 Z M15.536,9.376 C14.8746667,9.376 14.2773333,9.224 13.744,8.92 C13.2106667,8.616 12.792,8.192 12.488,7.648 C12.184,7.104 12.032,6.48533333 12.032,5.792 C12.032,5.09866667 12.184,4.48 12.488,3.936 C12.792,3.392 13.2106667,2.968 13.744,2.664 C14.2773333,2.36 14.8746667,2.208 15.536,2.208 C16.1973333,2.208 16.7946667,2.36 17.328,2.664 C17.8613333,2.968 18.28,3.392 18.584,3.936 C18.888,4.48 19.04,5.09866667 19.04,5.792 C19.04,6.48533333 18.888,7.104 18.584,7.648 C18.28,8.192 17.8613333,8.616 17.328,8.92 C16.7946667,9.224 16.1973333,9.376 15.536,9.376 Z M26.208,11.392 L26.208,8.272 L28.592,8.272 L30.752,11.392 L33.536,11.392 L31.024,7.792 C31.76,7.472 32.328,7.01066667 32.728,6.408 C33.128,5.80533333 33.328,5.088 33.328,4.256 C33.328,3.424 33.1306667,2.704 32.736,2.096 C32.3413333,1.488 31.7786667,1.01866667 31.048,0.688 C30.3173333,0.357333333 29.456,0.192 28.464,0.192 L28.464,0.192 L23.616,0.192 L23.616,11.392 L26.208,11.392 Z M28.32,6.208 L26.208,6.208 L26.208,2.304 L28.32,2.304 C29.0986667,2.304 29.6906667,2.472 30.096,2.808 C30.5013333,3.144 30.704,3.62666667 30.704,4.256 C30.704,4.87466667 30.5013333,5.35466667 30.096,5.696 C29.6906667,6.03733333 29.0986667,6.208 28.32,6.208 L28.32,6.208 Z" id="FOR" fill="#3F3F3F"></path>
                <path d="M37.808,11.392 L37.808,4.816 L41.088,10.208 L42.256,10.208 L45.552,4.672 L45.568,11.392 L48,11.392 L47.968,0.192 L45.84,0.192 L41.712,7.152 L37.52,0.192 L35.376,0.192 L35.376,11.392 L37.808,11.392 Z M56.08,11.584 C57.2426667,11.584 58.288,11.3333333 59.216,10.832 C60.144,10.3306667 60.8746667,9.64 61.408,8.76 C61.9413333,7.88 62.208,6.89066667 62.208,5.792 C62.208,4.69333333 61.9413333,3.704 61.408,2.824 C60.8746667,1.944 60.144,1.25333333 59.216,0.752 C58.288,0.250666667 57.2426667,-2.84217094e-14 56.08,-2.84217094e-14 C54.9173333,-2.84217094e-14 53.8693333,0.250666667 52.936,0.752 C52.0026667,1.25333333 51.272,1.944 50.744,2.824 C50.216,3.704 49.952,4.69333333 49.952,5.792 C49.952,6.89066667 50.216,7.88 50.744,8.76 C51.272,9.64 52.0026667,10.3306667 52.936,10.832 C53.8693333,11.3333333 54.9173333,11.584 56.08,11.584 Z M56.08,9.376 C55.4186667,9.376 54.8213333,9.224 54.288,8.92 C53.7546667,8.616 53.336,8.192 53.032,7.648 C52.728,7.104 52.576,6.48533333 52.576,5.792 C52.576,5.09866667 52.728,4.48 53.032,3.936 C53.336,3.392 53.7546667,2.968 54.288,2.664 C54.8213333,2.36 55.4186667,2.208 56.08,2.208 C56.7413333,2.208 57.3386667,2.36 57.872,2.664 C58.4053333,2.968 58.824,3.392 59.128,3.936 C59.432,4.48 59.584,5.09866667 59.584,5.792 C59.584,6.48533333 59.432,7.104 59.128,7.648 C58.824,8.192 58.4053333,8.616 57.872,8.92 C57.3386667,9.224 56.7413333,9.376 56.08,9.376 Z M69.712,11.392 L74.56,0.192 L71.984,0.192 L68.528,8.192 L65.12,0.192 L62.32,0.192 L67.152,11.392 L69.712,11.392 Z M84.16,11.392 L84.16,9.312 L78.064,9.312 L78.064,6.72 L83.264,6.72 L83.264,4.704 L78.064,4.704 L78.064,2.272 L83.952,2.272 L83.952,0.192 L75.488,0.192 L75.488,11.392 L84.16,11.392 Z" id="MOVE" fill="#56A6EB"></path>
                <path d="M89.008,6.832 L89.008,1.568 L91.28,1.568 L91.28,0.192 L84.96,0.192 L84.96,1.568 L87.216,1.568 L87.216,6.832 L89.008,6.832 Z M93.792,6.832 L93.792,3.136 L95.808,6.144 L96.608,6.144 L98.624,3.04 L98.64,6.832 L100.32,6.832 L100.288,0.192 L98.832,0.192 L96.24,4.192 L93.584,0.192 L92.112,0.192 L92.112,6.832 L93.792,6.832 Z" id="™" fill="#3F3F3F"></path>
            </g>
        </g>
    </g>
</svg>