<?xml version="1.0" encoding="UTF-8"?>
<svg width="24px" height="24px" viewBox="0 0 24 24" version="1.1" xmlns="http://www.w3.org/2000/svg" xmlns:xlink="http://www.w3.org/1999/xlink">
    <title>Group 2</title>
    <g id="desktop_version_edit_02" stroke="none" stroke-width="1" fill="none" fill-rule="evenodd">
        <g id="Desktop-HD" transform="translate(-341.000000, -704.000000)" fill="#ABC749" fill-rule="nonzero">
            <g id="CTA_main-Copy" transform="translate(309.000000, 684.000000)">
                <g id="Group-2" transform="translate(32.000000, 20.000000)">
                    <path d="M12,0 C18.627417,0 24,5.372583 24,12 C24,18.627417 18.627417,24 12,24 C5.372583,24 0,18.627417 0,12 C0,5.372583 5.372583,0 12,0 Z M12,2 C6.4771525,2 2,6.4771525 2,12 C2,17.5228475 6.4771525,22 12,22 C17.5228475,22 22,17.5228475 22,12 C22,6.4771525 17.5228475,2 12,2 Z" id="Oval"></path>
                    <path d="M11.7158203,9.59667969 C12.4130859,9.59667969 12.9052734,9.11816406 12.9052734,8.42089844 C12.9052734,7.71679688 12.4130859,7.23828125 11.7158203,7.23828125 C11.0185547,7.23828125 10.5400391,7.72363281 10.5400391,8.42089844 C10.5400391,9.11816406 11.0253906,9.59667969 11.7158203,9.59667969 Z M12.8027344,17 L12.8027344,10.4375 L10.6494141,10.4375 L10.6494141,17 L12.8027344,17 Z" id="i"></path>
                </g>
            </g>
        </g>
    </g>
</svg>