<?xml version="1.0" encoding="UTF-8"?>
<svg width="24px" height="24px" viewBox="0 0 24 24" version="1.1" xmlns="http://www.w3.org/2000/svg" xmlns:xlink="http://www.w3.org/1999/xlink">
    <title>icon_menu_close</title>
    <g id="icon_menu_close" stroke="none" stroke-width="1" fill="none" fill-rule="evenodd">
        <path d="M4.92893219,3.51471863 L11.791207,10.3768254 L18.6544494,3.51471863 C19.0149334,3.15423466 19.5821644,3.12650513 19.9744556,3.43153002 L20.068663,3.51471863 C20.4591873,3.90524292 20.4591873,4.5384079 20.068663,4.92893219 L20.068663,4.92893219 L13.206207,11.7918254 L20.4852814,19.0710678 C20.8758057,19.4615921 20.8758057,20.0947571 20.4852814,20.4852814 C20.0947571,20.8758057 19.4615921,20.8758057 19.0710678,20.4852814 L11.791207,13.2058254 L4.5123138,20.4852814 C4.15182984,20.8457653 3.58459878,20.8734949 3.19230757,20.56847 L3.09810024,20.4852814 C2.70757594,20.0947571 2.70757594,19.4615921 3.09810024,19.0710678 L3.09810024,19.0710678 L10.377207,11.7918254 L3.51471863,4.92893219 C3.12419433,4.5384079 3.12419433,3.90524292 3.51471863,3.51471863 C3.90524292,3.12419433 4.5384079,3.12419433 4.92893219,3.51471863 Z" id="Combined-Shape" fill="#3F3F3F"></path>
    </g>
</svg>